<?xml version="1.0" standalone="no"?>
<!DOCTYPE svg PUBLIC "-//W3C//DTD SVG 20010904//EN"
 "http://www.w3.org/TR/2001/REC-SVG-20010904/DTD/svg10.dtd">
<svg version="1.0" xmlns="http://www.w3.org/2000/svg"
 width="809.000000pt" height="673.000000pt" viewBox="0 0 809.000000 673.000000"
 preserveAspectRatio="xMidYMid meet">

<g transform="translate(0.000000,673.000000) scale(0.100000,-0.100000)"
fill="#000000" stroke="none">
<path d="M3840 6485 c0 -2 19 -28 43 -57 63 -78 86 -120 108 -195 23 -83 24
-102 2 -170 -14 -44 -33 -70 -102 -141 -203 -206 -254 -296 -255 -447 -1 -121
58 -213 201 -313 37 -26 168 -62 226 -62 21 0 67 7 101 16 70 18 206 80 206
94 0 13 0 13 -50 -5 -67 -24 -159 -19 -227 11 -74 32 -98 55 -136 129 -25 49
-30 71 -30 125 1 87 48 191 130 286 33 39 75 98 93 132 30 58 32 67 28 145 -4
104 -34 170 -120 273 -70 83 -218 205 -218 179z"/>
<path d="M3920 6463 c76 -50 185 -159 223 -223 47 -78 70 -159 70 -237 -1 -92
-23 -138 -140 -281 -67 -83 -98 -164 -97 -258 1 -85 28 -149 80 -189 47 -36
159 -59 244 -49 54 6 60 8 35 14 -51 11 -95 39 -115 73 -26 42 -25 64 6 122
26 49 36 64 105 150 22 28 57 84 77 125 36 73 37 77 37 191 l0 116 -43 86
c-47 96 -113 173 -205 243 -72 55 -225 130 -282 139 l-40 7 45 -29z"/>
<path d="M2300 6267 c0 -3 22 -19 48 -35 30 -18 63 -51 86 -86 60 -90 69 -120
64 -211 -4 -68 -10 -91 -42 -155 -58 -114 -96 -257 -96 -360 0 -97 38 -224 84
-285 l27 -35 195 0 c106 0 194 4 194 8 0 5 -11 14 -24 20 -49 22 -157 135
-189 196 -26 52 -31 75 -35 153 -4 82 -1 100 24 170 26 70 28 91 29 208 0 122
-2 133 -28 186 -42 87 -98 144 -180 184 -65 31 -157 56 -157 42z"/>
<path d="M5734 6251 c-77 -26 -151 -78 -193 -135 -92 -125 -105 -257 -46 -463
40 -141 42 -172 15 -263 -28 -95 -120 -210 -204 -255 -20 -11 -36 -23 -36 -27
0 -5 89 -8 199 -8 229 0 202 -12 262 120 33 73 34 78 34 205 -1 145 -9 180
-88 350 -38 83 -41 97 -42 175 0 70 4 94 24 135 25 49 103 136 151 168 l25 16
-25 0 c-14 0 -48 -8 -76 -18z"/>
<path d="M2610 6142 c0 -5 13 -27 28 -48 75 -103 88 -261 38 -444 -46 -168
-35 -263 42 -365 43 -57 138 -136 197 -165 45 -22 195 -29 195 -10 0 6 -4 10
-8 10 -22 0 -151 111 -179 154 -44 67 -54 143 -51 371 2 161 0 196 -14 228
-24 53 -87 145 -123 181 -41 41 -125 100 -125 88z"/>
<path d="M5452 6101 c-92 -68 -164 -174 -187 -276 -14 -60 -15 -86 -5 -191 9
-91 10 -138 1 -186 -17 -99 -39 -164 -67 -197 -26 -32 -135 -118 -160 -128
-36 -13 -7 -23 70 -23 83 0 84 0 157 48 92 61 162 135 197 210 37 78 36 173
-2 297 -51 167 -38 334 35 434 47 65 36 69 -39 12z"/>
<path d="M4463 5967 c2 -7 10 -39 17 -71 24 -115 -9 -214 -113 -338 -84 -100
-122 -167 -111 -200 13 -42 44 -76 80 -88 43 -14 48 -11 34 24 -26 69 -6 111
101 221 117 121 142 195 100 306 -22 57 -79 145 -100 154 -8 3 -11 0 -8 -8z"/>
<path d="M2840 5967 c0 -2 14 -31 30 -64 46 -92 55 -155 42 -281 -20 -181 13
-309 101 -393 67 -64 191 -129 246 -129 49 0 52 10 10 29 -16 7 -58 39 -91 70
-83 76 -128 170 -128 267 -1 38 -5 112 -9 164 -11 124 -51 212 -129 288 -47
45 -72 62 -72 49z"/>
<path d="M5228 5927 c-100 -91 -136 -189 -147 -402 -7 -132 -12 -157 -35 -206
-30 -63 -147 -184 -189 -194 -41 -11 -32 -25 14 -25 51 0 167 55 232 111 49
42 97 123 113 189 4 19 8 125 8 235 l1 200 33 62 c47 90 42 95 -30 30z"/>
<path d="M3074 5478 c25 -109 110 -209 213 -253 56 -23 86 -29 173 -33 102 -4
234 11 245 28 3 5 -3 13 -13 19 -10 5 -33 39 -52 75 -18 36 -37 66 -41 66 -4
0 -23 -9 -42 -20 -19 -12 -62 -25 -96 -31 -115 -18 -237 30 -355 140 -38 35
-38 36 -32 9z"/>
<path d="M5036 5477 c-24 -35 -147 -119 -201 -137 -22 -8 -71 -14 -108 -13
-61 0 -77 5 -169 51 -81 42 -104 50 -120 41 -27 -15 -41 -57 -33 -106 10 -69
33 -88 129 -108 183 -38 353 -2 440 95 47 52 88 140 84 177 l-3 28 -19 -28z"/>
<path d="M3210 5206 c0 -2 22 -18 50 -36 81 -52 129 -60 375 -60 l220 0 -55
32 -55 31 -86 -12 c-47 -6 -113 -11 -147 -11 -69 0 -205 24 -256 45 -37 16
-46 18 -46 11z"/>
<path d="M4880 5195 c-78 -41 -279 -56 -419 -31 l-74 13 -56 -34 -56 -34 245
3 c241 3 246 3 300 29 61 30 98 55 90 62 -3 3 -16 -1 -30 -8z"/>
<path d="M2459 4798 c-1 -156 -4 -269 -8 -252 -13 55 -51 122 -89 159 -20 19
-38 31 -40 26 -2 -5 9 -33 25 -63 27 -52 28 -57 28 -218 0 -192 9 -226 58
-216 24 5 28 3 25 -15 -2 -16 -28 -30 -118 -66 -154 -60 -157 -61 -232 -25
-105 51 -135 55 -195 30 -55 -23 -73 -49 -73 -109 0 -15 -20 -69 -45 -120 -55
-114 -57 -144 -11 -221 35 -57 35 -58 29 -148 -6 -95 14 -197 44 -222 20 -17
29 -2 51 85 21 80 31 102 39 80 2 -7 16 -29 29 -49 39 -56 100 -182 122 -249
41 -122 66 -414 39 -442 -12 -11 -67 24 -124 80 -61 59 -69 54 -61 -48 4 -45
14 -78 33 -111 22 -38 28 -60 29 -115 2 -84 20 -113 97 -152 70 -35 135 -37
247 -8 71 19 92 20 140 11 30 -5 57 -10 59 -10 1 0 18 -33 36 -74 50 -107 105
-183 192 -264 69 -64 217 -163 330 -220 96 -48 498 -188 595 -207 19 -4 71
-17 115 -30 261 -76 211 -74 425 -15 63 18 149 40 190 51 67 16 271 85 450
152 193 71 396 203 514 335 46 51 132 193 141 232 5 21 15 32 38 39 71 22 105
23 186 2 114 -30 184 -28 252 7 66 33 94 80 95 162 1 40 9 73 32 120 25 50 32
78 32 122 0 31 -4 59 -8 62 -5 3 -29 -15 -53 -40 -24 -25 -63 -56 -86 -69
l-43 -24 -6 26 c-12 45 4 255 25 353 22 98 78 225 148 334 42 66 41 66 63 -45
6 -31 17 -65 25 -75 15 -19 15 -19 30 1 28 35 40 99 40 205 0 100 2 108 34
169 40 78 39 97 -18 213 -21 46 -43 103 -46 128 -10 65 -18 75 -79 100 -62 25
-78 22 -192 -31 -74 -35 -79 -35 -152 -6 -31 13 -90 36 -130 52 -52 20 -72 33
-70 44 2 10 12 15 26 13 18 -3 26 5 40 35 14 31 17 64 15 188 -3 148 -2 151
27 213 52 110 -20 62 -78 -53 l-31 -60 -1 263 0 262 -1600 0 -1600 0 -1 -282z
m3101 -209 l0 -372 -46 7 c-25 3 -50 8 -55 12 -5 3 -9 136 -9 310 l0 304
-1390 0 -1390 0 0 -309 0 -308 -37 -7 c-80 -13 -73 -50 -73 364 l0 370 1500 0
1500 0 0 -371z m-1520 126 c0 -9 -10 -19 -22 -24 -114 -44 -121 -50 -93 -81
14 -16 12 -18 -26 -24 -84 -14 -187 -66 -277 -141 -48 -40 -109 -96 -136 -124
-26 -28 -52 -48 -57 -45 -23 14 2 105 37 135 11 8 39 23 64 32 56 21 106 60
96 75 -16 26 -69 10 -118 -36 -27 -25 -28 -25 -28 -5 0 42 93 95 320 183 173
66 240 81 240 55z m94 7 c3 -5 31 -14 63 -22 53 -11 110 -33 273 -101 72 -30
156 -84 164 -104 13 -34 5 -34 -40 0 -46 35 -87 45 -100 23 -11 -17 38 -54
105 -79 47 -17 63 -28 74 -53 21 -45 28 -89 17 -106 -8 -12 -23 -1 -82 60 -40
41 -99 97 -131 123 -62 52 -186 112 -255 123 -23 4 -42 9 -42 11 0 3 10 13 22
23 l22 17 -30 15 c-16 9 -46 21 -67 27 -20 7 -42 21 -47 32 -9 17 -7 19 19 19
16 0 32 -4 35 -8z m-934 -200 c93 -25 250 -82 250 -90 -1 -4 -26 -19 -58 -33
-41 -19 -80 -28 -141 -32 -75 -5 -88 -9 -136 -42 -85 -58 -143 -66 -187 -27
-29 25 -22 28 47 24 59 -4 70 -2 106 24 23 16 62 31 92 35 127 19 183 31 192
41 7 7 -3 9 -33 4 -35 -5 -48 -2 -69 14 -31 24 -69 26 -112 4 -30 -15 -181
-44 -229 -44 -45 0 -11 19 46 25 69 8 105 21 128 46 16 18 15 19 -12 30 -27
10 -104 6 -139 -7 -8 -4 -15 -13 -15 -21 0 -12 -7 -14 -32 -9 -18 3 -51 9 -72
14 -34 6 -37 9 -23 21 9 7 42 22 74 32 72 24 211 20 323 -9z m2068 -1 c28 -13
52 -27 52 -31 0 -4 -15 -10 -32 -13 -18 -4 -47 -9 -64 -12 -26 -6 -32 -3 -36
13 -4 16 -17 21 -64 27 -36 4 -70 2 -88 -5 -27 -10 -28 -11 -12 -29 23 -25 59
-38 128 -46 32 -4 61 -11 64 -17 13 -21 -213 13 -253 38 -32 20 -76 17 -106
-6 -21 -16 -34 -19 -69 -14 -33 5 -40 4 -32 -5 6 -7 40 -17 75 -22 35 -5 87
-13 116 -18 30 -4 69 -19 92 -35 36 -26 47 -28 106 -24 72 4 79 -5 26 -35 -43
-26 -84 -17 -161 34 -55 38 -67 41 -143 46 -72 5 -148 28 -197 61 -14 10 183
80 300 106 95 22 231 16 298 -13z m-999 -137 c20 -9 62 -43 93 -75 40 -42 64
-59 82 -59 40 0 33 34 -20 90 -48 51 -49 63 -3 32 97 -65 195 -175 183 -206
-8 -20 -40 -30 -85 -27 -32 2 -43 -4 -80 -42 -44 -44 -143 -91 -178 -85 -27 5
-25 64 3 113 32 54 32 66 1 103 l-25 30 32 -7 c41 -10 58 -4 58 18 0 27 -28
60 -70 81 -35 18 -90 81 -90 104 0 4 14 -5 31 -22 18 -17 48 -39 68 -48z
m-328 48 c-14 -26 -61 -71 -101 -96 -62 -39 -65 -100 -4 -88 28 5 30 0 7 -34
-15 -24 -15 -28 5 -77 26 -62 29 -127 7 -127 -40 0 -133 46 -173 87 -40 40
-47 43 -91 42 -56 -2 -71 5 -71 33 0 43 82 135 180 201 36 25 50 20 19 -6 -28
-23 -79 -93 -79 -108 0 -5 13 -9 30 -9 23 0 41 12 81 54 28 30 70 64 94 76 24
13 54 33 66 46 26 28 44 32 30 6z m-697 -180 c-3 -46 -29 -82 -60 -82 -21 0
-25 3 -19 18 23 56 -11 67 -82 26 l-48 -27 30 33 c48 53 84 71 135 68 44 -3
45 -4 44 -36z m1744 24 c30 -16 91 -76 76 -76 -5 0 -24 9 -42 20 -43 26 -82
27 -82 1 0 -11 5 -23 10 -26 18 -11 10 -25 -15 -25 -15 0 -30 9 -39 23 -17 28
-29 75 -21 87 9 15 82 12 113 -4z m-1639 -160 c7 -9 27 -16 44 -16 l30 0 -20
-22 c-27 -30 -39 -55 -47 -99 -8 -45 1 -69 24 -69 31 0 33 -20 6 -41 -35 -27
-33 -37 9 -45 42 -7 43 -16 9 -61 l-25 -33 35 0 c19 0 46 4 60 10 64 24 4 -52
-62 -79 -55 -23 -65 -96 -31 -242 9 -41 10 -66 2 -90 l-10 -34 -12 55 c-6 30
-22 72 -35 93 -23 37 -23 40 -8 67 15 26 15 31 -3 70 l-19 43 32 27 c39 32 40
48 7 104 -21 36 -24 48 -15 70 5 15 10 29 10 30 0 2 -18 6 -41 10 -27 4 -52
18 -76 41 -37 36 -37 38 10 35 41 -3 87 19 98 46 12 33 4 48 -36 67 -47 22
-46 54 3 148 l37 73 5 -70 c3 -39 11 -78 19 -88z m1505 39 c22 -55 23 -61 8
-78 -9 -10 -27 -23 -41 -30 -32 -15 -38 -47 -13 -77 14 -18 32 -24 76 -28 l57
-5 -23 -24 c-25 -27 -79 -53 -109 -53 -17 0 -18 -5 -13 -39 5 -31 1 -48 -21
-85 l-27 -46 39 -34 38 -35 -18 -30 c-21 -35 -22 -61 -3 -86 12 -17 11 -24 -9
-60 -12 -22 -28 -64 -35 -94 -9 -36 -15 -49 -21 -40 -14 22 -10 103 6 149 35
100 18 173 -48 206 -41 21 -77 54 -77 71 0 10 5 11 18 5 9 -5 34 -12 55 -15
43 -7 48 6 17 46 -29 36 -25 44 22 52 l42 7 -32 29 c-18 16 -32 31 -32 34 0 3
14 11 30 16 25 9 30 16 30 42 0 38 -30 106 -55 127 -17 14 -16 15 16 20 46 7
61 38 55 115 l-4 60 24 -30 c13 -16 35 -57 48 -90z m-2024 60 c0 -16 -66 -75
-91 -80 -16 -4 -34 -15 -39 -25 -9 -17 -4 -17 74 -13 91 6 82 11 143 -71 l36
-49 -34 7 c-21 4 -46 20 -64 41 -40 46 -68 55 -137 42 -49 -9 -60 -8 -90 10
-36 21 -47 53 -25 71 8 7 49 21 91 32 42 11 84 24 94 29 18 11 42 14 42 6z
m2565 -24 c37 -12 76 -21 86 -21 23 0 59 -34 59 -55 0 -8 -20 -25 -45 -37 -38
-19 -50 -20 -90 -11 -63 14 -87 7 -138 -43 -31 -29 -54 -44 -72 -44 -25 0 -25
1 -10 17 9 9 28 33 41 54 28 46 53 53 140 46 77 -6 81 7 12 40 -43 20 -78 55
-78 76 0 5 6 7 14 4 7 -3 44 -15 81 -26z m-3277 -94 c51 -22 95 -44 98 -48 5
-10 -60 -29 -98 -29 -21 0 -32 8 -43 30 -18 34 -55 56 -79 47 -25 -10 -19 -27
21 -64 42 -40 39 -54 -16 -84 -18 -9 -41 -25 -51 -34 -18 -16 -21 -15 -54 10
-20 15 -36 29 -36 32 0 2 7 15 16 29 12 17 15 38 12 69 -6 48 5 65 52 84 34
14 70 5 178 -42z m4100 27 c18 -12 22 -24 22 -61 0 -26 5 -62 12 -80 12 -32
11 -34 -22 -62 l-35 -29 -25 22 c-14 13 -40 32 -57 42 -41 23 -41 42 -3 79 36
35 40 65 8 65 -29 0 -39 -7 -67 -49 -23 -32 -25 -33 -74 -26 -76 9 -86 19 -46
39 48 24 170 74 194 79 27 6 65 -2 93 -19z m-3046 -25 c27 -14 68 -62 61 -71
-2 -5 -24 -8 -49 -8 -63 0 -105 45 -72 78 15 15 33 15 60 1z m1837 -3 c14 -17
-1 -61 -24 -70 -25 -9 -105 -7 -105 3 0 16 80 81 99 81 10 0 24 -6 30 -14z
m-1346 -42 c14 -14 35 -41 46 -60 l20 -34 -22 -14 c-58 -37 -99 -31 -123 17
-9 18 -26 43 -38 56 -13 14 -17 25 -10 28 6 2 20 10 30 18 29 22 68 18 97 -11z
m895 6 l33 -21 -25 -30 c-14 -17 -26 -34 -26 -38 0 -17 -42 -51 -63 -51 -12 0
-37 9 -55 20 l-34 21 19 28 c34 54 73 91 96 91 12 0 37 -9 55 -20z m-2014 -10
c16 -6 27 -6 31 0 8 12 26 12 44 1 12 -8 11 -13 -8 -28 l-22 -18 29 -28 c26
-25 42 -30 140 -42 118 -15 219 -52 257 -95 21 -23 145 -243 140 -248 -7 -8
-54 23 -65 43 -16 30 -67 68 -75 55 -3 -5 1 -26 10 -46 8 -20 13 -40 10 -43
-3 -3 -30 22 -60 54 l-54 60 -7 -32 c-7 -36 -24 -45 -24 -13 0 26 -52 83 -104
114 -67 39 -81 64 -18 32 52 -26 132 -48 227 -61 l49 -7 -49 47 c-83 77 -115
93 -221 110 -122 20 -140 28 -208 93 -68 65 -71 71 -22 52z m3008 -56 c-67
-65 -70 -66 -232 -95 -36 -6 -76 -17 -90 -24 -31 -17 -143 -116 -136 -122 11
-11 197 33 251 59 51 26 57 27 39 9 -11 -12 -42 -36 -70 -54 -32 -21 -57 -47
-71 -76 l-23 -45 -6 32 c-4 18 -9 32 -13 32 -3 0 -28 -25 -54 -55 -53 -60 -76
-72 -52 -25 16 32 20 70 6 70 -4 0 -31 -25 -58 -55 -77 -83 -91 -72 -36 28 92
165 105 182 177 216 50 23 93 34 174 44 82 10 116 19 140 36 37 26 41 47 12
56 -23 7 -26 21 -7 28 6 2 35 4 62 3 l50 -1 -63 -61z m-2742 36 c19 -10 64
-79 56 -87 -2 -2 -43 2 -91 11 -81 14 -135 36 -135 55 0 22 136 39 170 21z
m2660 -10 c23 -12 23 -13 4 -27 -24 -17 -103 -39 -172 -48 l-52 -6 21 38 c12
20 28 43 38 51 20 16 126 11 161 -8z m-3117 -15 c35 -14 84 -45 110 -69 45
-41 47 -45 47 -99 0 -31 -4 -59 -10 -62 -6 -4 -10 6 -10 23 0 17 -9 40 -20 53
l-19 24 -1 -27 c0 -15 -5 -39 -12 -55 -11 -28 -11 -28 -23 23 -7 28 -17 59
-23 69 -9 17 -11 15 -17 -17 -4 -21 -13 -42 -20 -48 -9 -8 -14 2 -18 41 -4 29
-20 75 -37 105 -16 30 -30 56 -30 59 0 10 20 5 83 -20z m1182 -29 c29 -50 67
-86 92 -86 12 0 37 9 55 20 53 32 67 23 23 -16 -74 -66 -117 -59 -180 27 -47
65 -62 120 -26 97 10 -6 27 -25 36 -42z m1105 33 c0 -25 -64 -123 -93 -144
-33 -23 -70 -18 -115 14 -67 49 -63 73 6 31 18 -11 42 -20 54 -20 21 0 78 45
78 62 0 12 53 78 63 78 4 0 7 -9 7 -21z m1190 -32 c-16 -29 -36 -80 -44 -112
-13 -59 -14 -59 -25 -32 -6 16 -11 38 -11 50 0 20 -1 20 -16 5 -9 -9 -19 -39
-22 -67 -2 -28 -8 -51 -13 -51 -9 0 -19 28 -23 63 -4 38 -20 30 -34 -17 -7
-26 -17 -44 -23 -41 -14 9 -11 93 6 124 21 42 166 128 218 130 15 1 13 -6 -13
-52z m-1904 -184 c39 -42 44 -60 12 -39 -33 20 -81 28 -109 17 -26 -10 -25
-10 47 -30 42 -11 94 -45 94 -61 0 -5 -22 -6 -49 -3 -60 7 -134 -14 -106 -30
10 -5 45 -7 84 -3 63 7 65 6 48 -11 -14 -15 -38 -19 -122 -21 -95 -4 -105 -6
-105 -23 0 -22 -18 -24 -55 -7 -35 16 -43 3 -16 -26 20 -22 41 -96 27 -96 -4
0 -18 7 -32 16 -37 25 -40 10 -10 -46 21 -39 25 -54 16 -69 -5 -11 -10 -30
-10 -42 0 -23 36 -89 49 -89 5 0 11 27 15 61 13 126 98 208 255 246 45 11 17
-19 -36 -39 -82 -30 -163 -124 -163 -188 0 -26 62 -122 96 -149 13 -10 41 -22
61 -26 43 -8 63 -21 63 -41 0 -11 -9 -9 -37 6 -21 11 -47 20 -58 20 -21 0 -82
37 -122 73 -27 24 -30 10 -8 -33 11 -21 32 -35 87 -55 127 -48 138 -54 138
-69 0 -21 -6 -20 -40 4 -16 11 -43 23 -62 27 -18 3 -50 14 -70 24 -45 23 -58
24 -58 4 0 -22 -28 -6 -94 54 -30 27 -60 51 -67 53 -12 4 -12 12 -1 51 15 59
15 94 0 103 -18 11 -48 -34 -48 -73 0 -24 -8 -41 -26 -58 -15 -14 -30 -25 -34
-25 -13 0 -40 146 -40 213 0 88 17 122 70 138 27 8 40 18 40 30 0 10 18 39 40
64 22 26 50 65 61 86 12 24 31 44 47 50 15 5 45 19 67 29 22 11 60 20 84 20
37 0 48 -5 77 -37z m439 13 c27 -13 58 -27 67 -30 10 -3 24 -20 31 -39 8 -18
35 -57 61 -86 25 -28 46 -60 46 -69 0 -12 14 -23 42 -32 54 -19 68 -46 68
-135 -1 -72 -21 -191 -36 -205 -17 -17 -56 29 -65 77 -10 50 -24 73 -45 73
-21 0 -25 -33 -9 -86 18 -60 19 -74 3 -74 -7 0 -39 -25 -71 -55 -58 -55 -82
-66 -90 -42 -3 9 -16 6 -51 -10 -25 -13 -57 -23 -70 -23 -13 0 -40 -11 -60
-25 -43 -29 -46 -30 -46 -9 0 15 11 21 138 69 57 21 76 34 88 57 9 16 13 32
11 35 -3 2 -28 -11 -55 -31 -27 -19 -69 -40 -93 -46 -24 -6 -54 -18 -66 -26
-21 -13 -23 -13 -23 5 0 15 10 23 43 31 23 6 53 16 65 23 33 16 82 81 99 128
12 36 11 45 -5 83 -26 58 -84 112 -145 135 -53 19 -80 49 -36 38 158 -38 241
-119 254 -249 4 -32 11 -58 16 -58 11 0 49 73 49 95 0 8 -5 24 -12 34 -10 16
-7 28 16 71 32 58 29 71 -10 46 -14 -10 -28 -16 -30 -13 -10 9 15 91 30 99 9
5 16 14 16 20 0 10 -7 9 -67 -8 -18 -5 -23 -2 -23 14 0 19 -7 20 -105 24 -84
2 -108 6 -122 21 -17 17 -15 18 48 11 39 -4 74 -2 84 3 30 17 -47 37 -113 29
l-56 -7 24 27 c28 29 81 54 116 54 29 0 32 16 5 25 -23 7 -68 -2 -98 -21 -33
-21 -28 -4 11 39 29 32 40 37 77 37 26 0 65 -10 94 -24z m-2207 -23 c28 -10
66 -32 83 -49 28 -28 31 -40 41 -130 6 -54 8 -112 4 -128 l-7 -29 -18 29 c-10
16 -24 47 -31 69 -7 22 -28 64 -48 94 -35 54 -36 54 -50 33 -14 -21 -15 -21
-28 -5 -13 17 -15 17 -25 0 -9 -16 -13 -15 -39 13 -29 31 -50 35 -109 24 -31
-7 -44 -24 -16 -24 8 0 25 -5 39 -11 l25 -12 -38 -54 c-27 -36 -44 -77 -56
-126 -10 -39 -21 -76 -25 -81 -22 -23 -25 214 -4 268 5 13 4 17 -4 12 -16 -10
-27 41 -16 73 6 17 18 27 34 29 14 2 29 7 34 12 5 5 19 4 32 -2 18 -9 30 -8
48 1 18 10 29 10 44 2 28 -15 32 -14 32 5 0 18 13 17 98 -13z m3905 12 c5 -12
12 -12 38 -3 25 8 33 8 40 -3 6 -11 14 -11 39 -2 17 6 32 7 36 2 3 -5 19 -9
35 -9 23 0 32 -6 40 -27 12 -31 0 -79 -18 -76 -8 2 -7 -16 3 -55 16 -70 18
-158 3 -200 -12 -35 -29 -34 -29 2 0 43 -30 124 -65 175 -20 29 -33 56 -30 61
3 4 19 11 35 15 39 9 38 21 -1 29 -55 11 -72 7 -106 -26 l-32 -31 -9 24 -9 24
-7 -23 c-9 -27 -23 -28 -31 -2 -3 11 -9 20 -13 20 -14 0 -75 -103 -99 -167
-14 -35 -29 -63 -34 -63 -39 0 -9 224 37 279 16 19 41 33 74 41 28 7 53 16 56
21 8 14 41 10 47 -6z m-3335 -176 c41 -16 91 -42 112 -59 54 -43 101 -117 94
-146 -4 -15 -2 -24 5 -24 16 0 89 -69 96 -91 11 -33 25 -21 25 21 0 22 4 40
10 40 11 0 30 -63 31 -105 0 -24 6 -15 29 44 35 87 45 100 36 46 -3 -22 -10
-94 -14 -161 -8 -109 -11 -126 -39 -170 -34 -56 -111 -111 -140 -99 -16 6 -16
9 7 23 46 31 70 61 70 87 0 25 0 25 -25 9 -36 -23 -39 -14 -9 28 33 47 44 97
32 151 -11 52 -48 92 -138 147 -58 36 -61 39 -41 49 28 16 27 30 -9 79 -37 52
-111 106 -165 122 -22 7 -56 21 -75 31 l-35 20 35 -7 c19 -3 68 -19 108 -35z
m2774 21 c-23 -11 -60 -25 -82 -31 -45 -14 -156 -109 -180 -154 -13 -25 -13
-28 9 -44 l23 -18 -48 -28 c-76 -44 -131 -93 -143 -127 -20 -57 -13 -110 20
-162 34 -54 33 -65 -5 -41 -26 17 -26 17 -26 -7 0 -25 27 -58 71 -89 13 -10
21 -20 17 -24 -13 -13 -75 16 -111 51 -46 47 -67 109 -67 203 0 42 -7 98 -15
125 -8 27 -15 59 -15 70 1 38 38 -22 52 -84 l12 -55 7 40 c4 23 14 56 22 75
l15 35 1 -42 c1 -23 5 -44 10 -47 5 -3 21 13 35 35 15 22 42 49 61 60 24 15
32 25 28 39 -12 47 91 158 177 190 116 43 137 49 155 49 13 0 4 -7 -23 -19z
m-3119 -45 c57 -26 165 -99 185 -125 10 -14 38 -61 62 -105 24 -44 59 -100 79
-124 35 -43 129 -125 153 -134 9 -3 7 -11 -8 -28 -12 -13 -37 -53 -55 -89 -28
-54 -33 -76 -34 -133 0 -60 3 -71 23 -87 12 -10 22 -23 22 -28 0 -23 -77 -40
-171 -39 -92 1 -169 -17 -169 -41 0 -11 83 -22 174 -22 38 0 67 -3 64 -6 -15
-14 -146 -22 -280 -17 -142 6 -148 7 -132 24 23 25 156 74 241 88 39 7 98 25
131 41 65 30 72 44 72 137 0 46 26 108 66 156 27 33 30 47 10 47 -22 0 -73 47
-108 99 -50 73 -169 211 -182 211 -7 0 -17 -5 -24 -12 -9 -9 -12 -7 -12 11 0
20 -4 22 -22 17 -45 -14 -53 -12 -56 17 -3 23 -6 26 -17 17 -11 -9 -15 -5 -21
24 -7 38 -13 43 -31 25 -7 -7 -14 3 -22 35 -6 25 -11 47 -11 50 0 11 41 6 73
-9z m3431 -12 c-4 -16 -11 -39 -16 -53 -9 -24 -10 -24 -23 -6 -13 17 -14 15
-21 -19 -5 -29 -10 -36 -25 -32 -16 4 -19 0 -19 -25 0 -25 -3 -29 -17 -23 -45
18 -53 18 -53 -4 0 -19 -3 -20 -20 -11 -25 13 -43 2 -91 -56 -35 -42 -49 -60
-119 -155 -23 -31 -57 -65 -76 -75 -19 -10 -34 -22 -34 -26 0 -4 15 -29 33
-55 45 -63 49 -75 56 -163 l6 -74 45 -28 c27 -16 79 -34 130 -43 113 -22 224
-62 249 -89 l22 -23 -148 -6 c-133 -6 -266 2 -281 17 -3 3 24 6 60 6 85 0 188
11 188 20 0 4 -18 15 -41 25 -31 14 -66 19 -147 19 -88 1 -112 4 -135 20 l-28
19 26 27 c38 40 35 116 -8 212 -19 40 -41 79 -50 87 -25 20 -21 37 16 60 77
50 162 151 210 249 17 37 52 87 77 112 49 49 178 120 216 120 22 0 24 -3 18
-27z m-3754 4 c8 -2 17 -12 20 -23 10 -38 55 -92 107 -128 54 -38 66 -56 36
-56 -9 0 -27 -10 -40 -21 l-22 -22 -10 27 c-12 29 -21 32 -40 14 -11 -11 -12
-6 -7 25 6 35 5 37 -18 37 -19 0 -27 7 -32 24 -3 14 -12 23 -22 22 -12 -1 -18
8 -20 32 -2 24 -8 32 -23 32 -12 0 -19 7 -19 18 0 34 14 37 90 19z m4090 -12
c0 -18 -5 -25 -20 -25 -16 0 -20 -7 -20 -36 0 -28 -3 -35 -15 -30 -10 3 -17
-3 -21 -19 -4 -18 -13 -25 -31 -25 -23 0 -25 -3 -19 -35 7 -33 -5 -48 -19 -25
-11 17 -23 11 -29 -15 -8 -30 -22 -32 -36 -5 -6 12 -21 20 -35 20 -38 0 -30
15 28 53 52 35 101 94 108 132 4 20 34 32 82 34 22 1 27 -3 27 -24z m-2112
-137 c16 -16 15 -83 -2 -97 -10 -9 -29 -8 -76 3 -35 8 -67 19 -73 25 -14 14 5
35 56 60 48 24 77 27 95 9z m138 -9 c51 -24 71 -46 57 -60 -6 -6 -38 -17 -73
-25 -74 -17 -90 -9 -90 45 0 64 32 76 106 40z m-212 -126 c52 -25 54 -28 59
-72 3 -25 8 -59 12 -76 l8 -30 -26 36 c-13 20 -30 52 -36 72 -12 36 -27 47
-62 47 -26 0 -32 -20 -19 -55 14 -36 3 -46 -20 -18 -24 30 -35 90 -19 109 17
20 42 17 103 -13z m295 8 c11 -19 -2 -85 -21 -108 -15 -19 -30 -5 -18 17 19
35 12 60 -16 60 -39 0 -62 -17 -70 -52 -6 -31 -53 -103 -61 -95 -2 2 4 20 12
40 8 20 14 51 13 67 -3 28 2 34 52 61 64 34 95 37 109 10z m-678 -153 c13 -18
36 -48 52 -67 18 -22 27 -41 23 -54 -3 -11 4 -31 15 -46 11 -15 20 -42 21 -61
3 -85 21 -200 40 -252 13 -37 18 -69 14 -89 -3 -17 -1 -39 4 -50 12 -21 -9
-63 -37 -73 -13 -5 -14 0 -9 30 7 34 6 35 -15 29 -18 -6 -21 -4 -16 9 4 9 10
23 13 31 3 8 1 15 -6 15 -9 0 -7 7 4 25 23 35 20 100 -9 191 -14 43 -25 85
-25 92 0 7 -4 10 -10 7 -5 -3 -10 -17 -10 -31 0 -14 -6 -24 -14 -24 -15 0 -26
30 -26 71 0 15 -12 37 -30 54 -33 32 -32 45 5 37 18 -3 25 0 25 12 0 18 -30
39 -82 55 -20 7 -39 19 -42 27 -7 19 10 64 36 91 25 27 45 19 79 -29z m1048
16 c46 -58 36 -85 -40 -114 -23 -8 -49 -26 -58 -39 -15 -24 -15 -24 17 -19 39
6 42 -9 7 -42 -14 -13 -25 -35 -25 -49 -1 -14 -7 -39 -14 -56 l-13 -30 -8 30
c-13 57 -17 61 -27 25 -6 -19 -21 -71 -34 -115 -29 -97 -30 -109 -3 -151 13
-21 16 -34 9 -34 -7 0 -9 -7 -6 -15 3 -8 9 -22 12 -31 5 -12 1 -14 -19 -9 -25
7 -26 6 -17 -26 5 -18 8 -34 6 -36 -2 -2 -16 7 -32 20 -25 22 -27 27 -16 51 6
14 9 39 6 55 -4 17 -1 45 6 63 20 56 40 170 40 234 0 48 5 69 24 97 14 20 22
44 19 55 -6 25 101 162 128 162 9 0 27 -12 38 -26z m-1930 -133 l34 -28 -16
-42 c-10 -23 -17 -60 -17 -84 0 -31 -7 -49 -25 -69 -27 -29 -50 -35 -167 -41
l-78 -4 0 39 c0 36 12 50 25 28 11 -17 24 -11 31 15 7 30 5 30 47 5 l35 -21 7
41 c5 30 11 40 26 40 15 0 19 7 19 35 0 29 4 35 21 35 19 0 21 4 16 40 -3 22
-2 40 1 40 4 0 22 -13 41 -29z m2766 -11 c-6 -36 -5 -40 14 -40 17 0 21 -6 21
-35 0 -31 3 -35 25 -35 23 0 25 -4 25 -40 0 -22 3 -40 6 -40 4 0 22 9 40 21
l34 20 11 -25 c10 -20 15 -23 26 -14 17 14 23 8 30 -35 l5 -35 -83 4 c-164 9
-182 20 -193 117 -3 32 -13 72 -22 89 -9 17 -12 34 -7 37 21 18 66 51 70 51 3
0 2 -18 -2 -40z m-1622 -38 c15 -15 27 -33 27 -39 0 -6 -16 -37 -35 -69 -19
-32 -35 -63 -35 -69 0 -6 -8 -21 -17 -34 -16 -23 -17 -23 -24 -5 -13 34 -10
173 5 209 18 43 43 45 79 7z m513 -17 c16 -51 17 -156 3 -192 l-11 -28 -29 63
c-15 34 -40 78 -55 98 l-27 35 34 35 c44 45 69 42 85 -11z m1454 -146 c21 -62
26 -114 11 -123 -5 -4 -30 18 -56 46 l-46 53 3 65 c3 48 11 74 29 101 l24 36
8 -60 c4 -33 17 -86 27 -118z m-3431 128 c14 -29 21 -63 21 -101 0 -54 -3 -60
-43 -103 -64 -68 -89 -36 -47 59 11 25 23 77 26 116 4 40 10 72 15 72 4 0 17
-19 28 -43z m1654 -7 c17 -65 -19 -143 -44 -97 -8 14 -13 12 -35 -10 -17 -17
-29 -22 -36 -15 -12 12 -39 133 -32 144 3 4 23 -4 44 -17 l40 -25 15 31 c20
37 36 33 48 -11z m102 9 c8 -23 24 -24 51 -4 33 25 44 18 44 -25 0 -41 -23
-110 -36 -110 -4 0 -19 10 -32 23 -17 15 -26 18 -29 10 -7 -19 -31 -15 -43 6
-13 25 -13 87 0 111 12 23 37 17 45 -11z m-1845 -43 c0 -73 -59 -166 -104
-166 -2 0 -3 27 -2 60 1 50 4 60 19 60 13 0 17 8 17 35 0 29 4 35 20 35 11 0
23 7 26 15 11 27 24 5 24 -39z m3599 24 c19 0 22 -5 19 -32 -2 -27 0 -32 16
-30 16 3 17 -1 11 -37 -4 -24 -2 -48 5 -61 15 -29 7 -35 -28 -21 -50 21 -97
141 -75 197 6 15 7 16 18 0 7 -9 22 -16 34 -16z m-2468 -41 c72 -51 141 -148
170 -239 29 -91 36 -245 15 -333 -19 -81 -20 -139 -2 -187 45 -128 203 -265
390 -340 l69 -27 78 32 c155 65 311 190 360 290 28 58 31 142 11 285 -31 226
51 431 215 536 61 39 76 39 45 -1 -11 -14 -35 -60 -54 -103 -32 -74 -33 -82
-33 -207 1 -114 4 -142 29 -225 76 -252 80 -302 31 -374 -30 -44 -17 -46 29
-6 68 60 91 150 65 254 -10 42 -9 46 24 95 74 108 87 226 35 331 -15 30 -26
55 -25 57 6 5 121 -76 157 -111 40 -38 70 -107 70 -162 0 -44 -35 -137 -61
-160 -30 -27 -55 -81 -63 -136 -9 -59 5 -68 32 -20 45 80 124 133 196 131 39
0 121 -33 121 -48 0 -20 -105 -120 -190 -181 -89 -62 -280 -157 -425 -209 -80
-28 -353 -110 -485 -145 -33 -9 -83 -22 -112 -30 -59 -16 -28 -23 -443 96
-252 72 -261 75 -440 156 -170 77 -267 139 -370 241 l-75 74 44 19 c65 29 114
33 164 14 48 -18 75 -45 124 -121 l32 -50 1 48 c0 59 -19 106 -64 158 -56 66
-73 185 -37 264 16 37 72 90 145 140 61 41 66 38 34 -24 -25 -48 -30 -71 -30
-127 -1 -89 15 -140 64 -204 l38 -51 -15 -45 c-31 -93 -13 -169 58 -241 48
-50 68 -57 35 -12 -20 27 -23 42 -22 122 0 74 6 108 28 172 38 110 56 210 56
314 0 124 -29 221 -94 315 -18 27 -18 29 -2 23 10 -4 45 -26 77 -48z m-1379
-123 c77 -72 91 -109 45 -114 -38 -5 -72 20 -97 68 -16 31 -29 110 -17 110 1
0 32 -29 69 -64z m4108 -2 c-14 -64 -34 -92 -75 -110 -75 -31 -90 23 -23 83
23 21 53 50 67 65 33 36 44 23 31 -38z m-2321 -182 c27 -54 70 -101 117 -128
17 -10 17 -12 -8 -37 -36 -36 -75 -45 -93 -21 -28 36 -72 244 -51 244 3 0 19
-26 35 -58z m486 -71 c-30 -132 -48 -150 -112 -111 -37 22 -44 55 -13 65 25 8
100 93 100 114 0 9 8 28 18 41 l17 25 3 -29 c2 -15 -4 -63 -13 -105z m-355
-141 c0 -23 15 -27 24 -5 3 8 10 15 15 15 12 0 47 -107 39 -115 -8 -8 -133 49
-143 65 -5 9 1 22 19 37 33 28 46 29 46 3z m260 -16 c12 -14 12 -18 -5 -31
-35 -27 -128 -64 -137 -55 -10 10 30 112 44 112 5 0 11 -7 14 -15 9 -21 21
-19 27 6 5 17 9 19 25 10 10 -5 25 -17 32 -27z m-366 -30 c9 -3 16 -18 17 -33
1 -19 21 -44 74 -93 67 -61 78 -68 116 -68 38 0 47 6 115 72 53 51 73 77 69
89 -8 24 28 44 55 29 10 -6 23 -10 27 -9 20 3 25 -2 14 -15 -8 -10 -9 -16 -1
-21 21 -13 9 -32 -36 -53 -25 -12 -42 -27 -39 -32 8 -14 -49 -70 -71 -70 -9 0
-32 -11 -50 -25 -60 -46 -117 -46 -170 0 -16 14 -37 25 -47 25 -23 0 -81 56
-72 70 3 5 -15 19 -40 31 -44 21 -56 41 -33 55 7 5 5 11 -7 21 -11 7 -15 13
-9 14 39 3 55 7 61 12 8 8 8 8 27 1z"/>
<path d="M1900 4967 c0 -1 22 -20 49 -40 66 -50 111 -135 111 -209 0 -43 -8
-72 -41 -139 -58 -120 -81 -244 -63 -338 6 -28 10 -31 43 -31 21 0 59 -11 87
-24 73 -37 100 -45 122 -40 18 5 18 9 -13 55 -18 26 -39 65 -45 85 -15 44 -8
148 15 224 24 82 22 216 -3 273 -35 79 -67 112 -140 144 -61 28 -122 48 -122
40z"/>
<path d="M6155 4954 c-123 -44 -169 -86 -206 -184 -27 -71 -22 -204 11 -295
36 -100 14 -219 -53 -293 -18 -20 -19 -24 -7 -32 19 -12 53 -3 112 27 26 14
68 28 94 31 40 6 49 11 55 32 22 77 -1 199 -61 330 -51 112 -56 145 -34 217
14 47 30 69 83 121 68 66 69 69 6 46z"/>
<path d="M5945 4852 c-40 -25 -91 -78 -123 -127 -42 -66 -53 -126 -46 -260 5
-95 3 -133 -10 -184 -9 -35 -15 -65 -13 -67 10 -11 101 -43 108 -39 22 14 69
97 79 139 10 48 10 53 -36 256 -21 93 -9 161 41 244 18 31 33 56 32 56 -1 0
-15 -8 -32 -18z"/>
<path d="M2153 4842 c9 -10 28 -44 43 -76 24 -54 26 -66 21 -145 -3 -47 -15
-115 -27 -151 -32 -98 -25 -168 24 -242 22 -32 42 -58 46 -58 7 0 101 39 108
45 1 1 -5 19 -14 41 -14 31 -17 75 -18 214 -1 173 -1 176 -31 233 -30 61 -124
157 -152 157 -15 0 -15 -2 0 -18z"/>
<path d="M1784 2209 c10 -113 45 -164 146 -215 49 -25 68 -28 210 -34 167 -7
211 -19 256 -67 40 -43 31 -52 -28 -32 -42 14 -83 18 -194 18 -117 0 -150 3
-193 20 -49 18 -117 62 -133 85 -15 21 -7 -19 11 -59 46 -101 127 -147 295
-165 72 -8 97 -15 136 -40 42 -27 67 -56 57 -66 -1 -2 -25 4 -52 12 -28 8 -97
19 -154 24 -93 7 -108 11 -148 39 -42 30 -44 30 -37 9 11 -36 43 -74 88 -105
52 -38 78 -47 203 -77 57 -14 107 -27 113 -31 6 -4 10 -128 10 -346 l0 -339
405 0 405 0 152 -56 c84 -31 175 -64 203 -75 59 -23 495 -139 523 -139 11 0
108 22 216 50 195 49 365 103 571 179 l110 41 417 0 418 0 2 347 3 347 105 26
c142 36 198 66 247 132 36 49 29 62 -16 32 -34 -22 -57 -27 -145 -34 -57 -5
-123 -14 -145 -21 -72 -21 -69 12 3 55 35 20 69 30 138 37 156 18 233 61 285
162 13 27 22 51 20 54 -3 2 -27 -12 -55 -31 -80 -58 -119 -67 -277 -67 -112 0
-151 -3 -195 -19 -30 -10 -57 -17 -59 -14 -12 11 40 62 88 85 49 24 67 27 205
31 133 4 156 7 196 27 75 39 99 61 126 112 27 53 45 179 27 179 -6 0 -13 -10
-16 -22 -4 -13 -20 -42 -38 -66 -63 -86 -199 -126 -293 -87 -21 9 -59 20 -86
25 -57 11 -52 12 -285 -85 -88 -37 -176 -71 -195 -77 -19 -6 -39 -13 -45 -17
-5 -4 -26 -14 -45 -21 -19 -7 -57 -24 -85 -36 -92 -41 -180 -76 -230 -94 -100
-34 -320 -122 -330 -132 -7 -6 33 -9 120 -6 72 1 300 2 508 1 l377 -3 0 -360
0 -360 -1625 0 -1625 0 0 358 0 359 334 7 c184 4 406 4 493 1 139 -6 156 -5
138 7 -11 8 -47 24 -80 36 -57 20 -363 143 -525 212 -41 17 -102 42 -135 54
-33 13 -132 54 -220 91 -179 76 -211 81 -311 46 -81 -29 -147 -27 -209 5 -65
34 -100 68 -126 121 -11 24 -23 43 -26 43 -3 0 -3 -32 1 -71z m1951 -1429 c83
-11 190 -25 238 -31 71 -10 105 -10 175 0 190 28 438 58 446 53 5 -3 -17 -13
-50 -22 -32 -10 -106 -32 -164 -49 -58 -18 -153 -46 -212 -63 l-108 -31 -112
31 c-62 18 -151 44 -198 58 -47 15 -117 36 -157 48 -82 25 -105 40 -48 31 22
-3 108 -14 190 -25z"/>
<path d="M2475 1638 c-3 -7 -4 -164 -3 -348 l3 -335 1600 0 1600 0 0 345 0
345 -525 3 c-289 1 -543 -2 -565 -7 -22 -4 -96 -25 -165 -46 -138 -41 -300
-84 -343 -92 -15 -3 -62 4 -105 16 -42 11 -135 37 -207 56 -71 20 -148 44
-170 53 -36 15 -98 17 -578 20 -435 2 -538 0 -542 -10z m2697 -129 c101 -39
152 -112 152 -219 0 -73 -16 -115 -67 -171 -60 -68 -146 -91 -253 -69 -50 10
-67 20 -110 64 -37 36 -56 64 -64 96 -14 52 -7 148 14 188 57 109 205 160 328
111z m407 10 c30 -10 31 -13 31 -65 0 -57 -5 -63 -36 -39 -28 21 -71 19 -84
-6 -10 -18 -3 -28 53 -85 96 -96 108 -165 39 -237 -41 -43 -118 -58 -194 -36
l-38 10 0 59 c0 60 8 72 29 46 14 -17 72 -29 95 -20 9 4 16 17 16 34 0 22 -12
39 -54 75 -84 72 -106 137 -66 202 37 61 131 89 209 62z m-2884 -16 c-13 -30
-18 -133 -7 -133 5 0 18 12 27 28 10 15 34 48 53 75 l36 47 73 0 c68 0 95 -12
59 -26 -8 -3 -49 -46 -91 -95 -52 -61 -74 -93 -68 -102 27 -46 180 -227 191
-227 11 0 13 41 10 225 l-3 225 143 0 c93 0 142 -4 142 -11 0 -24 -46 -88 -60
-84 -8 2 -32 7 -52 11 l-38 6 0 -56 0 -56 70 0 69 0 -26 -50 c-22 -43 -29 -49
-47 -43 -53 17 -61 11 -64 -44 l-3 -53 33 0 c19 0 57 6 87 14 52 13 52 13 47
-8 -3 -12 -12 -39 -21 -59 l-15 -37 -218 0 -217 0 -54 80 c-30 44 -59 80 -64
80 -11 0 -4 -113 8 -142 6 -16 -1 -18 -72 -18 l-80 0 9 63 c6 34 7 140 4 235
l-5 172 76 0 c68 0 74 -2 68 -17z m896 -10 c43 -27 59 -59 59 -120 0 -41 -4
-50 -42 -85 -49 -45 -48 -47 41 -154 l56 -66 8 43 c10 54 4 367 -8 393 -8 17
-3 18 71 13 43 -3 117 -14 164 -25 79 -18 85 -21 98 -52 15 -36 5 -79 -25
-113 -17 -18 -17 -20 1 -33 60 -44 74 -131 30 -184 -48 -56 -64 -60 -277 -60
l-193 0 -26 28 c-14 15 -42 53 -62 85 -20 31 -39 57 -43 57 -6 0 3 -105 13
-145 6 -25 6 -25 -67 -25 l-74 0 0 236 0 236 120 -4 c103 -3 125 -6 156 -25z
m809 22 c0 -3 -10 -25 -22 -50 -25 -48 -22 -47 -105 -28 -22 5 -23 2 -23 -51
l0 -56 70 0 69 0 -31 -50 c-23 -37 -36 -49 -47 -44 -9 4 -26 9 -38 11 -22 5
-23 2 -23 -52 l0 -58 61 7 c33 4 72 11 85 16 29 12 29 9 2 -57 l-22 -53 -138
0 -138 0 10 26 c6 14 10 110 10 213 l0 187 88 21 c81 19 192 29 192 18z m291
-6 c60 -18 82 -49 87 -120 4 -59 4 -60 -37 -99 l-42 -40 42 -62 c23 -33 57
-78 77 -100 l34 -38 -70 0 -70 0 -47 53 c-26 28 -52 64 -57 80 -6 15 -15 27
-20 27 -11 0 -6 -111 7 -142 6 -16 -1 -18 -71 -18 l-79 0 0 235 0 235 104 0
c57 0 121 -5 142 -11z"/>
<path d="M4985 1404 c-12 -18 -21 -53 -23 -91 -5 -78 20 -126 82 -154 81 -37
117 -20 136 64 14 63 -1 117 -44 164 -27 29 -41 36 -82 40 -47 5 -52 3 -69
-23z"/>
<path d="M3440 1380 c0 -60 0 -60 30 -60 31 0 50 22 50 59 0 27 -34 61 -60 61
-18 0 -20 -7 -20 -60z"/>
<path d="M3850 1391 c0 -43 3 -51 18 -51 22 0 52 30 52 52 0 18 -16 33 -47 42
-22 7 -23 5 -23 -43z"/>
<path d="M3850 1200 c0 -57 1 -60 24 -60 52 0 74 62 36 100 -11 11 -29 20 -40
20 -18 0 -20 -7 -20 -60z"/>
<path d="M4580 1380 c0 -57 1 -60 24 -60 25 0 56 32 56 58 0 18 -46 62 -65 62
-12 0 -15 -13 -15 -60z"/>
<path d="M4780 742 c-58 -29 -53 -59 21 -132 34 -33 64 -60 66 -60 2 0 3 7 3
17 0 9 -22 40 -50 69 -27 29 -50 58 -50 63 0 15 37 51 53 51 6 0 4 -5 -5 -11
-31 -17 -21 -51 29 -96 52 -48 53 -48 53 -30 0 7 -16 28 -35 47 -44 43 -45 67
-2 85 l32 14 -40 1 c-22 0 -56 -8 -75 -18z"/>
<path d="M4970 708 c-31 -145 -28 -158 43 -158 43 0 48 22 6 29 -13 1 -27 8
-30 13 -4 5 2 46 11 89 17 76 17 79 0 79 -14 0 -21 -13 -30 -52z"/>
<path d="M5526 678 c-10 -46 -20 -93 -23 -105 -4 -16 -1 -23 10 -23 22 0 25 7
42 96 8 42 17 85 20 96 5 13 1 18 -13 18 -15 0 -22 -14 -36 -82z"/>
<path d="M5610 740 c0 -11 6 -20 14 -20 7 0 16 9 19 20 4 15 0 20 -14 20 -12
0 -19 -7 -19 -20z"/>
<path d="M5100 692 c-16 -13 -24 -32 -27 -69 -5 -45 -3 -52 17 -63 30 -16 86
-4 105 23 22 32 20 104 -4 117 -30 15 -66 12 -91 -8z m77 -28 c3 -8 1 -29 -4
-47 -7 -27 -14 -32 -38 -32 -35 0 -43 22 -25 66 14 32 56 41 67 13z"/>
<path d="M5273 695 c-19 -13 -43 -68 -43 -97 0 -19 43 -48 70 -48 39 0 41 27
3 32 -22 2 -29 9 -31 30 -5 41 14 66 50 70 17 2 33 9 36 16 6 18 -58 16 -85
-3z"/>
<path d="M5397 704 c-14 -15 -6 -23 26 -26 40 -4 42 -22 2 -26 -38 -5 -65 -29
-65 -58 0 -29 30 -46 73 -42 30 3 33 7 47 61 10 42 11 63 4 75 -11 17 -74 29
-87 16z m49 -90 c-3 -9 -6 -20 -6 -25 0 -12 -37 -11 -45 1 -12 20 4 40 31 40
20 0 25 -4 20 -16z"/>
<path d="M5595 673 c-4 -21 -11 -54 -16 -73 -12 -48 -12 -52 8 -48 16 3 42 83
43 136 0 38 -28 26 -35 -15z"/>
<path d="M5670 695 c0 -10 10 -15 31 -15 l31 0 -46 -51 c-61 -68 -60 -81 6
-77 57 3 82 28 29 28 -17 0 -31 3 -31 6 0 4 20 29 45 55 25 26 45 53 45 59 0
6 -23 10 -55 10 -42 0 -55 -3 -55 -15z"/>
<path d="M5810 695 c0 -10 10 -15 30 -15 20 0 30 -5 30 -15 0 -10 -10 -15 -27
-15 -34 0 -46 -8 -61 -37 -17 -31 -5 -52 33 -59 60 -11 68 -4 84 65 14 60 14
64 -4 77 -26 19 -85 18 -85 -1z m52 -71 c12 -11 -5 -44 -23 -44 -22 0 -33 16
-25 35 5 15 37 21 48 9z"/>
</g>
</svg>
